<svg xmlns="http://www.w3.org/2000/svg" xmlns:xlink="http://www.w3.org/1999/xlink" viewBox="0 0 242.63 131.58"><defs><style>.cls-1{fill:none;}.cls-2{isolation:isolate;}.cls-3{fill:#fff;}.cls-4{clip-path:url(#clip-path);}.cls-5{clip-path:url(#clip-path-2);}</style><clipPath id="clip-path" transform="translate(-1.5)"><polygon class="cls-1" points="3 17.06 3 93.85 64.71 99.59 170.87 93.83 236.36 93.83 236.36 17.06 3 17.06"/></clipPath><clipPath id="clip-path-2" transform="translate(-1.5)"><rect class="cls-1" y="1.5" width="239.63" height="128.58"/></clipPath></defs><title>Element 2</title><g id="Ebene_2" data-name="Ebene 2"><g id="Ebene_1-2" data-name="Ebene 1"><g class="cls-2"><g class="cls-2"><path class="cls-3" d="M27.51,36.92H38.36v3.31H31v3H38v3.31H31v3.31h7.73V53.2H27.51Z" transform="translate(-1.5)"/><path class="cls-3" d="M47.35,45.31a2.38,2.38,0,0,0-2-.94,1.82,1.82,0,0,0-.83.21.73.73,0,0,0-.41.71.64.64,0,0,0,.42.61,5.4,5.4,0,0,0,1.06.35l1.38.32a5.12,5.12,0,0,1,1.37.54,3.11,3.11,0,0,1,1.06,1,3,3,0,0,1,.42,1.69,3.18,3.18,0,0,1-.46,1.78,3.57,3.57,0,0,1-1.18,1.13,5,5,0,0,1-1.62.6,9.49,9.49,0,0,1-1.78.17,8.46,8.46,0,0,1-2.32-.33,4.31,4.31,0,0,1-2-1.18l2.05-2.32a3.42,3.42,0,0,0,1,.91,2.78,2.78,0,0,0,1.34.31A3.07,3.07,0,0,0,46,50.68a.63.63,0,0,0,.47-.63.7.7,0,0,0-.42-.66A4.54,4.54,0,0,0,45,49l-1.37-.32a5.63,5.63,0,0,1-1.37-.52,2.89,2.89,0,0,1-1.06-1,3,3,0,0,1-.42-1.69,3.46,3.46,0,0,1,.39-1.7,3.51,3.51,0,0,1,1-1.17A4.45,4.45,0,0,1,43.68,42a6.65,6.65,0,0,1,1.69-.22,7.8,7.8,0,0,1,2.19.32,4,4,0,0,1,1.87,1.15Z" transform="translate(-1.5)"/><path class="cls-3" d="M57.78,45.31a2.38,2.38,0,0,0-2-.94,1.82,1.82,0,0,0-.83.21.73.73,0,0,0-.41.71.64.64,0,0,0,.42.61,5.4,5.4,0,0,0,1.06.35l1.38.32a5.12,5.12,0,0,1,1.37.54,3.11,3.11,0,0,1,1.06,1,3,3,0,0,1,.42,1.69,3.18,3.18,0,0,1-.46,1.78,3.57,3.57,0,0,1-1.18,1.13,5,5,0,0,1-1.62.6,9.49,9.49,0,0,1-1.78.17,8.46,8.46,0,0,1-2.32-.33,4.31,4.31,0,0,1-2-1.18L53,49.64a3.42,3.42,0,0,0,1,.91,2.78,2.78,0,0,0,1.34.31,3.07,3.07,0,0,0,1.06-.17.63.63,0,0,0,.47-.63.7.7,0,0,0-.42-.66A4.54,4.54,0,0,0,55.43,49l-1.37-.32a5.63,5.63,0,0,1-1.37-.52,2.89,2.89,0,0,1-1.06-1,3,3,0,0,1-.42-1.69,3.46,3.46,0,0,1,.39-1.7,3.51,3.51,0,0,1,1-1.17A4.45,4.45,0,0,1,54.11,42a6.65,6.65,0,0,1,1.69-.22,7.8,7.8,0,0,1,2.19.32,4,4,0,0,1,1.87,1.15Z" transform="translate(-1.5)"/><path class="cls-3" d="M72.39,51.27a5.41,5.41,0,0,1-2.05,1.63,6,6,0,0,1-2.57.57,6.77,6.77,0,0,1-2.38-.41,5.69,5.69,0,0,1-1.94-1.18A5.55,5.55,0,0,1,62.16,50a6.39,6.39,0,0,1,0-4.83,5.55,5.55,0,0,1,1.3-1.85,5.7,5.7,0,0,1,1.94-1.18,6.78,6.78,0,0,1,2.38-.41,5.32,5.32,0,0,1,2.13.41,4.44,4.44,0,0,1,1.62,1.18,5.43,5.43,0,0,1,1,1.85,7.6,7.6,0,0,1,.36,2.41v1.08H65.06a2.74,2.74,0,0,0,.88,1.58,2.46,2.46,0,0,0,1.67.59A2.5,2.5,0,0,0,69,50.48a3.81,3.81,0,0,0,1-1Zm-2.86-4.92A2,2,0,0,0,69,44.85a2,2,0,0,0-1.51-.62,2.43,2.43,0,0,0-1.72.66,2.07,2.07,0,0,0-.47.67,2.23,2.23,0,0,0-.19.79Z" transform="translate(-1.5)"/><path class="cls-3" d="M75,42h3.25v1.52h0a2.8,2.8,0,0,1,.45-.64,3.32,3.32,0,0,1,.7-.57,4,4,0,0,1,.92-.41,3.8,3.8,0,0,1,1.13-.16,4.58,4.58,0,0,1,2.07.4,3,3,0,0,1,1.23,1.11,4.57,4.57,0,0,1,.6,1.68A13,13,0,0,1,85.51,47V53.2H82.13V47.73q0-.48,0-1a3.21,3.21,0,0,0-.2-1,1.65,1.65,0,0,0-.52-.71,1.59,1.59,0,0,0-1-.28,2.06,2.06,0,0,0-1.06.24,1.63,1.63,0,0,0-.62.64,2.68,2.68,0,0,0-.28.91,8,8,0,0,0-.07,1.06V53.2H75Z" transform="translate(-1.5)"/><path class="cls-3" d="M95.36,44.79h-3v3.72a7.1,7.1,0,0,0,0,.84,1.71,1.71,0,0,0,.2.66,1,1,0,0,0,.48.43,2.1,2.1,0,0,0,.87.15,5.76,5.76,0,0,0,.71-.06,1.19,1.19,0,0,0,.67-.26v2.87a5,5,0,0,1-1.17.28,10.63,10.63,0,0,1-1.19.07,6.37,6.37,0,0,1-1.58-.18,3.56,3.56,0,0,1-1.26-.59,2.73,2.73,0,0,1-.85-1A3.63,3.63,0,0,1,89,50.1V44.79H86.84V42H89V38.72h3.38V42h3Z" transform="translate(-1.5)"/><path class="cls-3" d="M96.85,38.51a2,2,0,0,1,.57-1.41,1.93,1.93,0,0,1,2.77,0,2,2,0,0,1,0,2.83,1.93,1.93,0,0,1-2.77,0A1.94,1.94,0,0,1,96.85,38.51ZM97.12,42h3.38V53.2H97.12Z" transform="translate(-1.5)"/><path class="cls-3" d="M109.81,51.8h0a3.2,3.2,0,0,1-1.5,1.29,5.07,5.07,0,0,1-2,.39,5,5,0,0,1-1.48-.22,3.71,3.71,0,0,1-1.25-.66,3.15,3.15,0,0,1-.86-1.08,3.36,3.36,0,0,1-.32-1.49,3.48,3.48,0,0,1,.35-1.63,3.17,3.17,0,0,1,.95-1.1,4.67,4.67,0,0,1,1.36-.68,9.86,9.86,0,0,1,1.59-.36,14.94,14.94,0,0,1,1.65-.14l1.52,0a1.81,1.81,0,0,0-.64-1.46,2.29,2.29,0,0,0-1.52-.54,3.26,3.26,0,0,0-1.52.36,4.17,4.17,0,0,0-1.23,1l-1.8-1.89a6.18,6.18,0,0,1,2.21-1.34,7.75,7.75,0,0,1,2.61-.45,6.73,6.73,0,0,1,2.45.38,3.56,3.56,0,0,1,1.53,1.12,4.34,4.34,0,0,1,.8,1.8,12.11,12.11,0,0,1,.23,2.47V53.2h-3.11ZM109,48.3l-1,0a4.78,4.78,0,0,0-1.1.2,2.44,2.44,0,0,0-.9.48,1.12,1.12,0,0,0-.37.9,1,1,0,0,0,.52.92,2.13,2.13,0,0,0,1.08.3,3.34,3.34,0,0,0,1-.14,2.83,2.83,0,0,0,.82-.39,1.83,1.83,0,0,0,.79-1.56V48.3Z" transform="translate(-1.5)"/><path class="cls-3" d="M115.08,35.82h3.38V53.2h-3.38Z" transform="translate(-1.5)"/><path class="cls-3" d="M128,36.92h5.93a11.49,11.49,0,0,1,2.34.23,5.28,5.28,0,0,1,1.93.79,4,4,0,0,1,1.31,1.52,5.28,5.28,0,0,1,.48,2.4,5.64,5.64,0,0,1-.45,2.39,3.91,3.91,0,0,1-1.24,1.54,5,5,0,0,1-1.87.82,10.74,10.74,0,0,1-2.34.24h-2.57V53.2H128Zm3.52,6.9h2.34a4.43,4.43,0,0,0,.91-.09,2.39,2.39,0,0,0,.79-.31,1.64,1.64,0,0,0,.56-.6,1.92,1.92,0,0,0,.21-1,1.64,1.64,0,0,0-.28-1,1.89,1.89,0,0,0-.72-.59,3,3,0,0,0-1-.26,9.89,9.89,0,0,0-1-.06h-1.8Z" transform="translate(-1.5)"/></g><g class="cls-2"><path class="cls-3" d="M141.77,42h3.38v1.79h0a4.22,4.22,0,0,1,1.28-1.55,3.2,3.2,0,0,1,1.87-.52l.59,0a2.85,2.85,0,0,1,.54.09V45a5,5,0,0,0-.71-.17,4.54,4.54,0,0,0-.73-.06,3.53,3.53,0,0,0-1.53.28,2.05,2.05,0,0,0-.87.77,3,3,0,0,0-.39,1.18,11.68,11.68,0,0,0-.09,1.52V53.2h-3.38Z" transform="translate(-1.5)"/></g><g class="cls-2"><path class="cls-3" d="M150.16,47.61a6,6,0,0,1,.47-2.41,5.56,5.56,0,0,1,1.3-1.85,5.71,5.71,0,0,1,1.94-1.18,7,7,0,0,1,4.76,0,5.7,5.7,0,0,1,1.94,1.18,5.57,5.57,0,0,1,1.3,1.85,6.4,6.4,0,0,1,0,4.83,5.56,5.56,0,0,1-1.3,1.85,5.69,5.69,0,0,1-1.94,1.18,7,7,0,0,1-4.76,0,5.7,5.7,0,0,1-1.94-1.18,5.56,5.56,0,0,1-1.3-1.85A6,6,0,0,1,150.16,47.61Zm3.38,0a2.93,2.93,0,0,0,.71,2,2.94,2.94,0,0,0,4,0,3.3,3.3,0,0,0,0-4.09,2.94,2.94,0,0,0-4,0A2.93,2.93,0,0,0,153.54,47.61Z" transform="translate(-1.5)"/><path class="cls-3" d="M167.74,54a8.51,8.51,0,0,1-.2,1.94,3.77,3.77,0,0,1-.68,1.47,3.09,3.09,0,0,1-1.25.94,4.91,4.91,0,0,1-1.93.33q-.38,0-.79,0a3.91,3.91,0,0,1-.79-.15l.18-3.06a1.9,1.9,0,0,0,.88.21,1,1,0,0,0,.68-.23,1.34,1.34,0,0,0,.36-.57,2.92,2.92,0,0,0,.14-.74q0-.39,0-.71V42h3.38Zm-3.65-15.52a2,2,0,0,1,.57-1.41,1.93,1.93,0,0,1,2.77,0,2,2,0,0,1,0,2.83,1.93,1.93,0,0,1-2.77,0A1.94,1.94,0,0,1,164.08,38.51Z" transform="translate(-1.5)"/><path class="cls-3" d="M180.54,51.27a5.41,5.41,0,0,1-2.05,1.63,6,6,0,0,1-2.57.57,6.77,6.77,0,0,1-2.38-.41,5.69,5.69,0,0,1-1.94-1.18,5.55,5.55,0,0,1-1.3-1.85,6.39,6.39,0,0,1,0-4.83,5.55,5.55,0,0,1,1.3-1.85,5.7,5.7,0,0,1,1.94-1.18,6.78,6.78,0,0,1,2.38-.41,5.32,5.32,0,0,1,2.13.41,4.44,4.44,0,0,1,1.62,1.18,5.43,5.43,0,0,1,1,1.85,7.6,7.6,0,0,1,.36,2.41v1.08h-7.84a2.74,2.74,0,0,0,.88,1.58,2.46,2.46,0,0,0,1.67.59,2.5,2.5,0,0,0,1.41-.38,3.81,3.81,0,0,0,1-1Zm-2.86-4.92a2,2,0,0,0-.56-1.49,2,2,0,0,0-1.51-.62,2.43,2.43,0,0,0-1.72.66,2.07,2.07,0,0,0-.47.67,2.23,2.23,0,0,0-.19.79Z" transform="translate(-1.5)"/><path class="cls-3" d="M190.52,45.64a1.91,1.91,0,0,0-.7-.61,2,2,0,0,0-1-.24,2.56,2.56,0,0,0-2,.78,3.3,3.3,0,0,0,0,4.09,2.56,2.56,0,0,0,2,.78,1.79,1.79,0,0,0,1-.25,3,3,0,0,0,.7-.6L192.75,52a4.29,4.29,0,0,1-1.86,1.16,6.87,6.87,0,0,1-2,.33,6.77,6.77,0,0,1-2.38-.41,5.69,5.69,0,0,1-1.94-1.18,5.55,5.55,0,0,1-1.3-1.85,6.39,6.39,0,0,1,0-4.83,5.55,5.55,0,0,1,1.3-1.85,5.7,5.7,0,0,1,1.94-1.18,6.78,6.78,0,0,1,2.38-.41,6.88,6.88,0,0,1,2,.33,4.31,4.31,0,0,1,1.86,1.16Z" transform="translate(-1.5)"/><path class="cls-3" d="M201.43,44.79h-3v3.72a7.1,7.1,0,0,0,0,.84,1.71,1.71,0,0,0,.2.66,1,1,0,0,0,.48.43,2.1,2.1,0,0,0,.87.15,5.76,5.76,0,0,0,.71-.06,1.19,1.19,0,0,0,.67-.26v2.87a5,5,0,0,1-1.17.28,10.63,10.63,0,0,1-1.19.07,6.37,6.37,0,0,1-1.58-.18,3.56,3.56,0,0,1-1.26-.59,2.73,2.73,0,0,1-.85-1,3.63,3.63,0,0,1-.3-1.56V44.79h-2.16V42h2.16V38.72h3.38V42h3Z" transform="translate(-1.5)"/><path class="cls-3" d="M209.34,45.31a2.38,2.38,0,0,0-2-.94,1.82,1.82,0,0,0-.83.21.73.73,0,0,0-.41.71.64.64,0,0,0,.42.61,5.4,5.4,0,0,0,1.06.35l1.38.32a5.12,5.12,0,0,1,1.37.54,3.11,3.11,0,0,1,1.06,1,3,3,0,0,1,.42,1.69,3.18,3.18,0,0,1-.46,1.78,3.57,3.57,0,0,1-1.18,1.13,5,5,0,0,1-1.62.6,9.49,9.49,0,0,1-1.78.17,8.46,8.46,0,0,1-2.32-.33,4.31,4.31,0,0,1-2-1.18l2.05-2.32a3.42,3.42,0,0,0,1,.91,2.78,2.78,0,0,0,1.34.31,3.07,3.07,0,0,0,1.06-.17.63.63,0,0,0,.47-.63.7.7,0,0,0-.42-.66A4.54,4.54,0,0,0,207,49l-1.37-.32a5.63,5.63,0,0,1-1.37-.52,2.89,2.89,0,0,1-1.06-1,3,3,0,0,1-.42-1.69,3.46,3.46,0,0,1,.39-1.7,3.51,3.51,0,0,1,1-1.17,4.45,4.45,0,0,1,1.48-.68,6.65,6.65,0,0,1,1.69-.22,7.8,7.8,0,0,1,2.19.32,4,4,0,0,1,1.87,1.15Z" transform="translate(-1.5)"/></g></g><g class="cls-2"><g class="cls-2"><path class="cls-3" d="M34.37,75.4a4,4,0,0,1-1.61-.31,3.73,3.73,0,0,1-1.26-.86,4,4,0,0,1-.82-1.3,4.56,4.56,0,0,1,0-3.23,4,4,0,0,1,.82-1.3,3.73,3.73,0,0,1,1.26-.86,4.27,4.27,0,0,1,3.21,0,3.74,3.74,0,0,1,1.26.86,4,4,0,0,1,.82,1.3,4.56,4.56,0,0,1,0,3.23,4,4,0,0,1-.82,1.3,3.74,3.74,0,0,1-1.26.86A4.05,4.05,0,0,1,34.37,75.4Zm0-1a2.76,2.76,0,0,0,1.19-.25,2.82,2.82,0,0,0,.91-.67,3,3,0,0,0,.58-1,3.64,3.64,0,0,0,0-2.41,2.94,2.94,0,0,0-.58-1,2.81,2.81,0,0,0-.91-.67,3,3,0,0,0-2.37,0,2.81,2.81,0,0,0-.91.67,2.94,2.94,0,0,0-.58,1,3.65,3.65,0,0,0,0,2.41,3,3,0,0,0,.58,1,2.81,2.81,0,0,0,.91.67A2.76,2.76,0,0,0,34.37,74.41Z" transform="translate(-1.5)"/><path class="cls-3" d="M39.58,70h1v.75h0a1.86,1.86,0,0,1,.77-.65,2.34,2.34,0,0,1,1-.23,2.66,2.66,0,0,1,1.07.21,2.37,2.37,0,0,1,.82.58,2.64,2.64,0,0,1,.52.87,3.26,3.26,0,0,1,0,2.16,2.58,2.58,0,0,1-.52.87,2.41,2.41,0,0,1-.82.58,2.66,2.66,0,0,1-1.07.21,2.33,2.33,0,0,1-1-.24,1.78,1.78,0,0,1-.74-.64h0V78.3h-1Zm2.65.79a1.72,1.72,0,0,0-.7.14,1.56,1.56,0,0,0-.53.37,1.67,1.67,0,0,0-.33.57,2.31,2.31,0,0,0,0,1.46,1.66,1.66,0,0,0,.33.57,1.54,1.54,0,0,0,.53.37,1.85,1.85,0,0,0,1.4,0,1.54,1.54,0,0,0,.53-.37,1.67,1.67,0,0,0,.33-.57,2.32,2.32,0,0,0,0-1.46,1.68,1.68,0,0,0-.33-.57,1.55,1.55,0,0,0-.53-.37A1.72,1.72,0,0,0,42.24,70.78Z" transform="translate(-1.5)"/><path class="cls-3" d="M46.9,73a1.32,1.32,0,0,0,.15.62,1.53,1.53,0,0,0,.38.48,1.76,1.76,0,0,0,.55.31,1.94,1.94,0,0,0,.65.11,1.43,1.43,0,0,0,.79-.21,2.55,2.55,0,0,0,.61-.57l.73.57a2.68,2.68,0,0,1-2.26,1.07,2.77,2.77,0,0,1-1.09-.21,2.38,2.38,0,0,1-.83-.58,2.58,2.58,0,0,1-.52-.87,3.13,3.13,0,0,1-.18-1.08,2.89,2.89,0,0,1,.2-1.08,2.69,2.69,0,0,1,.55-.87,2.51,2.51,0,0,1,.84-.58,2.65,2.65,0,0,1,1.06-.21,2.48,2.48,0,0,1,1.15.24,2.28,2.28,0,0,1,.77.63,2.52,2.52,0,0,1,.44.88,3.73,3.73,0,0,1,.13,1V73ZM50,72.17a2.13,2.13,0,0,0-.1-.6,1.34,1.34,0,0,0-.27-.48,1.26,1.26,0,0,0-.46-.32,1.65,1.65,0,0,0-.64-.12,1.53,1.53,0,0,0-.65.14,1.59,1.59,0,0,0-.5.36,1.66,1.66,0,0,0-.32.49,1.37,1.37,0,0,0-.11.53Z" transform="translate(-1.5)"/><path class="cls-3" d="M52.16,70h1v.8h0a1.45,1.45,0,0,1,.64-.68,2.07,2.07,0,0,1,1-.26,2.19,2.19,0,0,1,.71.12,1.59,1.59,0,0,1,.59.36,1.74,1.74,0,0,1,.4.62,2.42,2.42,0,0,1,.15.9V75.2h-1V72.12a1.77,1.77,0,0,0-.1-.62,1.13,1.13,0,0,0-.26-.42,1,1,0,0,0-.37-.23,1.34,1.34,0,0,0-.44-.07,1.56,1.56,0,0,0-.56.1,1.17,1.17,0,0,0-.45.31,1.48,1.48,0,0,0-.3.54,2.52,2.52,0,0,0-.11.78V75.2h-1Z" transform="translate(-1.5)"/><path class="cls-3" d="M61.63,73.57a1.71,1.71,0,0,0,.72.63,2.11,2.11,0,0,0,.9.2,1.81,1.81,0,0,0,.53-.08,1.6,1.6,0,0,0,.49-.25,1.34,1.34,0,0,0,.36-.41,1.1,1.1,0,0,0,.14-.56.85.85,0,0,0-.28-.69,2.41,2.41,0,0,0-.7-.4q-.42-.16-.91-.31a3.64,3.64,0,0,1-.91-.41,2.06,2.06,0,0,1-1-1.91,2.06,2.06,0,0,1,.15-.73,2,2,0,0,1,.46-.7,2.51,2.51,0,0,1,.8-.53,2.94,2.94,0,0,1,1.18-.21,4,4,0,0,1,1.2.18,2.06,2.06,0,0,1,1,.71l-.84.78a1.41,1.41,0,0,0-.55-.49,1.71,1.71,0,0,0-.81-.19,1.93,1.93,0,0,0-.72.12,1.29,1.29,0,0,0-.46.3,1.05,1.05,0,0,0-.24.39,1.21,1.21,0,0,0-.07.38,1,1,0,0,0,.28.76,2.17,2.17,0,0,0,.7.43,8.29,8.29,0,0,0,.91.3,3.85,3.85,0,0,1,.91.37,2.12,2.12,0,0,1,.7.64,1.9,1.9,0,0,1,.28,1.1,2.36,2.36,0,0,1-.21,1,2.24,2.24,0,0,1-.57.76,2.5,2.5,0,0,1-.84.47,3.19,3.19,0,0,1-1,.16,3.7,3.7,0,0,1-1.39-.26,2.29,2.29,0,0,1-1-.81Z" transform="translate(-1.5)"/><path class="cls-3" d="M66.9,72.59a2.7,2.7,0,0,1,.21-1.07,2.78,2.78,0,0,1,.58-.87,2.71,2.71,0,0,1,3.86,0,2.78,2.78,0,0,1,.58.87,2.7,2.7,0,0,1,.21,1.07,2.74,2.74,0,0,1-.21,1.07,2.7,2.7,0,0,1-.58.87,2.74,2.74,0,0,1-.86.58,2.76,2.76,0,0,1-2.13,0,2.73,2.73,0,0,1-.86-.58,2.7,2.7,0,0,1-.58-.87A2.74,2.74,0,0,1,66.9,72.59Zm1,0a2.18,2.18,0,0,0,.12.73,1.66,1.66,0,0,0,.33.57,1.54,1.54,0,0,0,.53.37,1.85,1.85,0,0,0,1.4,0,1.54,1.54,0,0,0,.53-.37,1.66,1.66,0,0,0,.33-.57,2.31,2.31,0,0,0,0-1.46,1.67,1.67,0,0,0-.33-.57,1.56,1.56,0,0,0-.53-.37,1.85,1.85,0,0,0-1.4,0,1.55,1.55,0,0,0-.53.37,1.67,1.67,0,0,0-.33.57A2.18,2.18,0,0,0,67.94,72.59Z" transform="translate(-1.5)"/><path class="cls-3" d="M78.08,75.2h-1v-.8h0a1.45,1.45,0,0,1-.64.68,2.07,2.07,0,0,1-1,.26,2.17,2.17,0,0,1-.71-.12,1.6,1.6,0,0,1-.59-.36,1.72,1.72,0,0,1-.4-.62,2.42,2.42,0,0,1-.15-.9V70h1v3.08a1.77,1.77,0,0,0,.1.62,1.13,1.13,0,0,0,.26.42,1,1,0,0,0,.37.23,1.34,1.34,0,0,0,.44.07,1.56,1.56,0,0,0,.56-.1A1.17,1.17,0,0,0,76.7,74a1.48,1.48,0,0,0,.3-.54,2.52,2.52,0,0,0,.11-.78V70h1Z" transform="translate(-1.5)"/></g><g class="cls-2"><path class="cls-3" d="M79.55,70h1v.8h0a1.42,1.42,0,0,1,.26-.38,1.74,1.74,0,0,1,.36-.29,1.9,1.9,0,0,1,.44-.19,1.64,1.64,0,0,1,.47-.07,1.33,1.33,0,0,1,.43.07l0,1.07-.24-.05-.24,0a1.41,1.41,0,0,0-1.09.41,1.81,1.81,0,0,0-.38,1.26V75.2h-1Z" transform="translate(-1.5)"/></g><g class="cls-2"><path class="cls-3" d="M87,71.37a2.05,2.05,0,0,0-.57-.43,1.56,1.56,0,0,0-.71-.15,1.53,1.53,0,0,0-.7.15,1.42,1.42,0,0,0-.5.41,1.83,1.83,0,0,0-.3.59,2.38,2.38,0,0,0-.1.7,2,2,0,0,0,.12.69,1.74,1.74,0,0,0,.33.57,1.53,1.53,0,0,0,.52.38,1.62,1.62,0,0,0,.68.14,1.53,1.53,0,0,0,.7-.15,1.8,1.8,0,0,0,.54-.43l.69.7a2.17,2.17,0,0,1-.88.62,3,3,0,0,1-1.06.19,2.87,2.87,0,0,1-1.08-.2,2.49,2.49,0,0,1-.85-.56,2.45,2.45,0,0,1-.55-.86,3,3,0,0,1-.19-1.1,3.07,3.07,0,0,1,.19-1.11,2.54,2.54,0,0,1,.54-.87,2.46,2.46,0,0,1,.84-.57,2.83,2.83,0,0,1,1.09-.2,2.88,2.88,0,0,1,1.07.2,2.37,2.37,0,0,1,.89.62Z" transform="translate(-1.5)"/><path class="cls-3" d="M89.28,73a1.32,1.32,0,0,0,.15.62,1.53,1.53,0,0,0,.38.48,1.76,1.76,0,0,0,.55.31,1.94,1.94,0,0,0,.65.11,1.43,1.43,0,0,0,.79-.21,2.55,2.55,0,0,0,.61-.57l.73.57a2.68,2.68,0,0,1-2.26,1.07,2.77,2.77,0,0,1-1.09-.21,2.38,2.38,0,0,1-.83-.58,2.58,2.58,0,0,1-.52-.87,3.13,3.13,0,0,1-.18-1.08,2.89,2.89,0,0,1,.2-1.08,2.69,2.69,0,0,1,.55-.87,2.51,2.51,0,0,1,.84-.58,2.65,2.65,0,0,1,1.06-.21A2.48,2.48,0,0,1,92,70.1a2.28,2.28,0,0,1,.77.63,2.52,2.52,0,0,1,.44.88,3.73,3.73,0,0,1,.13,1V73Zm3.06-.79a2.13,2.13,0,0,0-.1-.6,1.34,1.34,0,0,0-.27-.48,1.26,1.26,0,0,0-.46-.32,1.65,1.65,0,0,0-.64-.12,1.53,1.53,0,0,0-.65.14,1.59,1.59,0,0,0-.5.36,1.66,1.66,0,0,0-.32.49,1.37,1.37,0,0,0-.11.53Z" transform="translate(-1.5)"/><path class="cls-3" d="M98,73.57a1.71,1.71,0,0,0,.72.63,2.11,2.11,0,0,0,.9.2,1.81,1.81,0,0,0,.53-.08,1.6,1.6,0,0,0,.49-.25,1.34,1.34,0,0,0,.36-.41,1.1,1.1,0,0,0,.14-.56.85.85,0,0,0-.28-.69,2.41,2.41,0,0,0-.7-.4q-.42-.16-.91-.31a3.64,3.64,0,0,1-.91-.41,2.06,2.06,0,0,1-1-1.91,2.06,2.06,0,0,1,.15-.73A2,2,0,0,1,98,68a2.51,2.51,0,0,1,.8-.53,2.94,2.94,0,0,1,1.18-.21,4,4,0,0,1,1.2.18,2.06,2.06,0,0,1,1,.71l-.84.78a1.41,1.41,0,0,0-.55-.49,1.71,1.71,0,0,0-.81-.19,1.93,1.93,0,0,0-.72.12,1.29,1.29,0,0,0-.46.3,1.05,1.05,0,0,0-.24.39,1.21,1.21,0,0,0-.07.38,1,1,0,0,0,.28.76,2.17,2.17,0,0,0,.7.43,8.29,8.29,0,0,0,.91.3,3.85,3.85,0,0,1,.91.37,2.12,2.12,0,0,1,.7.64,1.9,1.9,0,0,1,.28,1.1,2.36,2.36,0,0,1-.21,1,2.24,2.24,0,0,1-.57.76,2.5,2.5,0,0,1-.84.47,3.19,3.19,0,0,1-1,.16,3.7,3.7,0,0,1-1.39-.26,2.29,2.29,0,0,1-1-.81Z" transform="translate(-1.5)"/><path class="cls-3" d="M103.29,72.59a2.7,2.7,0,0,1,.21-1.07,2.78,2.78,0,0,1,.58-.87,2.71,2.71,0,0,1,3.86,0,2.78,2.78,0,0,1,.58.87,2.7,2.7,0,0,1,.21,1.07,2.74,2.74,0,0,1-.21,1.07,2.7,2.7,0,0,1-.58.87,2.74,2.74,0,0,1-.86.58,2.76,2.76,0,0,1-2.13,0,2.73,2.73,0,0,1-.86-.58,2.7,2.7,0,0,1-.58-.87A2.74,2.74,0,0,1,103.29,72.59Zm1,0a2.18,2.18,0,0,0,.12.73,1.66,1.66,0,0,0,.33.57,1.54,1.54,0,0,0,.53.37,1.85,1.85,0,0,0,1.4,0,1.54,1.54,0,0,0,.53-.37,1.66,1.66,0,0,0,.33-.57,2.31,2.31,0,0,0,0-1.46,1.67,1.67,0,0,0-.33-.57,1.56,1.56,0,0,0-.53-.37,1.85,1.85,0,0,0-1.4,0,1.55,1.55,0,0,0-.53.37,1.67,1.67,0,0,0-.33.57A2.18,2.18,0,0,0,104.32,72.59Z" transform="translate(-1.5)"/><path class="cls-3" d="M110.32,70.85h-1.1V70h1.1V68.82a2.53,2.53,0,0,1,.39-1.56,1.6,1.6,0,0,1,1.35-.51h.34a2,2,0,0,1,.38.07l-.11.88a1.37,1.37,0,0,0-.27-.08l-.28,0a1,1,0,0,0-.43.08.61.61,0,0,0-.25.24,1,1,0,0,0-.12.37,4,4,0,0,0,0,.49V70h1.15v.86h-1.16V75.2h-1Z" transform="translate(-1.5)"/><path class="cls-3" d="M116.27,70.85h-1.39v2.36c0,.15,0,.29,0,.43A1.16,1.16,0,0,0,115,74a.62.62,0,0,0,.22.27.72.72,0,0,0,.43.1,2,2,0,0,0,.36,0,1,1,0,0,0,.33-.12v.9a1.24,1.24,0,0,1-.45.14l-.43,0a1.92,1.92,0,0,1-.87-.16,1.07,1.07,0,0,1-.45-.41,1.36,1.36,0,0,1-.17-.57q0-.31,0-.63V70.85h-1.12V70h1.12V68.53h1V70h1.39Z" transform="translate(-1.5)"/><path class="cls-3" d="M116.9,70H118l1.15,3.89h0L120.38,70h1l1.29,3.89h0L123.82,70h1l-1.65,5.21h-1l-1.35-3.89h0l-1.23,3.89h-1Z" transform="translate(-1.5)"/><path class="cls-3" d="M125.72,70.63a2.7,2.7,0,0,1,.95-.58,3.19,3.19,0,0,1,1.08-.19,2.9,2.9,0,0,1,1,.14,1.87,1.87,0,0,1,.66.38,1.52,1.52,0,0,1,.38.56,1.77,1.77,0,0,1,.12.65v2.66c0,.18,0,.35,0,.51s0,.3,0,.44h-.86q0-.4,0-.79h0a1.87,1.87,0,0,1-.77.71,2.38,2.38,0,0,1-1,.21,2.31,2.31,0,0,1-.68-.1,1.66,1.66,0,0,1-.57-.3,1.42,1.42,0,0,1-.38-.49,1.54,1.54,0,0,1-.14-.68,1.52,1.52,0,0,1,.22-.85,1.69,1.69,0,0,1,.6-.56,2.89,2.89,0,0,1,.9-.31,6.07,6.07,0,0,1,1.09-.09H129v-.22a1.11,1.11,0,0,0-.08-.4,1.06,1.06,0,0,0-.6-.61,1.4,1.4,0,0,0-.54-.09,2,2,0,0,0-.49.06,2.16,2.16,0,0,0-.38.14,1.67,1.67,0,0,0-.31.19l-.27.21Zm2.74,2.07a6.73,6.73,0,0,0-.71,0,2.75,2.75,0,0,0-.66.15,1.27,1.27,0,0,0-.48.31.7.7,0,0,0-.19.51.72.72,0,0,0,.3.65,1.43,1.43,0,0,0,.8.2,1.53,1.53,0,0,0,.68-.14,1.27,1.27,0,0,0,.45-.36,1.4,1.4,0,0,0,.25-.49A2,2,0,0,0,129,73v-.33Z" transform="translate(-1.5)"/></g><g class="cls-2"><path class="cls-3" d="M131.29,70h1v.8h0a1.42,1.42,0,0,1,.26-.38,1.74,1.74,0,0,1,.36-.29,1.9,1.9,0,0,1,.44-.19,1.64,1.64,0,0,1,.47-.07,1.33,1.33,0,0,1,.43.07l0,1.07-.24-.05-.24,0a1.41,1.41,0,0,0-1.09.41,1.81,1.81,0,0,0-.38,1.26V75.2h-1Z" transform="translate(-1.5)"/></g><g class="cls-2"><path class="cls-3" d="M135.83,73a1.32,1.32,0,0,0,.15.62,1.53,1.53,0,0,0,.38.48,1.76,1.76,0,0,0,.55.31,1.94,1.94,0,0,0,.65.11,1.43,1.43,0,0,0,.79-.21,2.55,2.55,0,0,0,.61-.57l.73.57a2.68,2.68,0,0,1-2.26,1.07,2.77,2.77,0,0,1-1.09-.21,2.38,2.38,0,0,1-.83-.58,2.58,2.58,0,0,1-.52-.87,3.13,3.13,0,0,1-.18-1.08,2.89,2.89,0,0,1,.2-1.08,2.69,2.69,0,0,1,.55-.87,2.51,2.51,0,0,1,.84-.58,2.65,2.65,0,0,1,1.06-.21,2.48,2.48,0,0,1,1.15.24,2.28,2.28,0,0,1,.77.63,2.52,2.52,0,0,1,.44.88,3.73,3.73,0,0,1,.13,1V73Zm3.06-.79a2.13,2.13,0,0,0-.1-.6,1.34,1.34,0,0,0-.27-.48,1.26,1.26,0,0,0-.46-.32,1.65,1.65,0,0,0-.64-.12,1.53,1.53,0,0,0-.65.14,1.59,1.59,0,0,0-.5.36,1.66,1.66,0,0,0-.32.49,1.37,1.37,0,0,0-.11.53Z" transform="translate(-1.5)"/><path class="cls-3" d="M144.16,67.42h2.66a4.85,4.85,0,0,1,1.42.19,3.76,3.76,0,0,1,1.06.5,3.15,3.15,0,0,1,.74.72,3.87,3.87,0,0,1,.47.84,4.27,4.27,0,0,1,.25.86,4.59,4.59,0,0,1,.08.79,4,4,0,0,1-.27,1.45,3.66,3.66,0,0,1-.8,1.24,3.92,3.92,0,0,1-1.31.87,4.61,4.61,0,0,1-1.81.33h-2.49Zm1,6.79h1.3a4.21,4.21,0,0,0,1.25-.18,3,3,0,0,0,1-.54,2.6,2.6,0,0,0,.7-.91,2.93,2.93,0,0,0,.26-1.27,3.86,3.86,0,0,0-.12-.87,2.64,2.64,0,0,0-.45-1,2.67,2.67,0,0,0-.91-.76,3.17,3.17,0,0,0-1.51-.31H145.2Z" transform="translate(-1.5)"/><path class="cls-3" d="M152.81,73a1.32,1.32,0,0,0,.15.62,1.53,1.53,0,0,0,.38.48,1.76,1.76,0,0,0,.55.31,1.94,1.94,0,0,0,.65.11,1.43,1.43,0,0,0,.79-.21,2.55,2.55,0,0,0,.61-.57l.73.57a2.68,2.68,0,0,1-2.26,1.07,2.77,2.77,0,0,1-1.09-.21,2.38,2.38,0,0,1-.83-.58,2.58,2.58,0,0,1-.52-.87,3.13,3.13,0,0,1-.18-1.08,2.89,2.89,0,0,1,.2-1.08,2.69,2.69,0,0,1,.55-.87,2.51,2.51,0,0,1,.84-.58,2.65,2.65,0,0,1,1.06-.21,2.48,2.48,0,0,1,1.15.24,2.28,2.28,0,0,1,.77.63,2.52,2.52,0,0,1,.44.88,3.73,3.73,0,0,1,.13,1V73Zm3.06-.79a2.13,2.13,0,0,0-.1-.6,1.34,1.34,0,0,0-.27-.48,1.26,1.26,0,0,0-.46-.32,1.65,1.65,0,0,0-.64-.12,1.53,1.53,0,0,0-.65.14,1.59,1.59,0,0,0-.5.36,1.66,1.66,0,0,0-.32.49,1.37,1.37,0,0,0-.11.53Z" transform="translate(-1.5)"/><path class="cls-3" d="M157.45,70h1.12l1.53,4,1.47-4h1l-2,5.21h-1.07Z" transform="translate(-1.5)"/><path class="cls-3" d="M164.19,73a1.32,1.32,0,0,0,.15.62,1.53,1.53,0,0,0,.38.48,1.76,1.76,0,0,0,.55.31,1.94,1.94,0,0,0,.65.11,1.43,1.43,0,0,0,.79-.21,2.55,2.55,0,0,0,.61-.57l.73.57a2.68,2.68,0,0,1-2.26,1.07,2.77,2.77,0,0,1-1.09-.21,2.38,2.38,0,0,1-.83-.58,2.58,2.58,0,0,1-.52-.87,3.13,3.13,0,0,1-.18-1.08,2.89,2.89,0,0,1,.2-1.08,2.69,2.69,0,0,1,.55-.87,2.51,2.51,0,0,1,.84-.58,2.65,2.65,0,0,1,1.06-.21,2.48,2.48,0,0,1,1.15.24,2.28,2.28,0,0,1,.77.63,2.52,2.52,0,0,1,.44.88,3.73,3.73,0,0,1,.13,1V73Zm3.06-.79a2.13,2.13,0,0,0-.1-.6,1.34,1.34,0,0,0-.27-.48,1.26,1.26,0,0,0-.46-.32,1.65,1.65,0,0,0-.64-.12,1.53,1.53,0,0,0-.65.14,1.59,1.59,0,0,0-.5.36,1.66,1.66,0,0,0-.32.49,1.37,1.37,0,0,0-.11.53Z" transform="translate(-1.5)"/><path class="cls-3" d="M169.53,66.89h1V75.2h-1Z" transform="translate(-1.5)"/><path class="cls-3" d="M171.79,72.59a2.7,2.7,0,0,1,.21-1.07,2.78,2.78,0,0,1,.58-.87,2.71,2.71,0,0,1,3.86,0,2.78,2.78,0,0,1,.58.87,2.7,2.7,0,0,1,.21,1.07,2.74,2.74,0,0,1-.21,1.07,2.7,2.7,0,0,1-.58.87,2.74,2.74,0,0,1-.86.58,2.76,2.76,0,0,1-2.13,0,2.73,2.73,0,0,1-.86-.58,2.7,2.7,0,0,1-.58-.87A2.74,2.74,0,0,1,171.79,72.59Zm1,0a2.18,2.18,0,0,0,.12.73,1.66,1.66,0,0,0,.33.57,1.54,1.54,0,0,0,.53.37,1.85,1.85,0,0,0,1.4,0,1.54,1.54,0,0,0,.53-.37,1.66,1.66,0,0,0,.33-.57,2.31,2.31,0,0,0,0-1.46,1.67,1.67,0,0,0-.33-.57,1.56,1.56,0,0,0-.53-.37,1.85,1.85,0,0,0-1.4,0,1.55,1.55,0,0,0-.53.37,1.67,1.67,0,0,0-.33.57A2.18,2.18,0,0,0,172.83,72.59Z" transform="translate(-1.5)"/><path class="cls-3" d="M178.44,70h1v.75h0a1.86,1.86,0,0,1,.77-.65,2.34,2.34,0,0,1,1-.23,2.66,2.66,0,0,1,1.07.21,2.37,2.37,0,0,1,.82.58,2.64,2.64,0,0,1,.52.87,3.26,3.26,0,0,1,0,2.16,2.58,2.58,0,0,1-.52.87,2.41,2.41,0,0,1-.82.58,2.66,2.66,0,0,1-1.07.21,2.33,2.33,0,0,1-1-.24,1.78,1.78,0,0,1-.74-.64h0V78.3h-1Zm2.65.79a1.72,1.72,0,0,0-.7.14,1.56,1.56,0,0,0-.53.37,1.67,1.67,0,0,0-.33.57,2.31,2.31,0,0,0,0,1.46,1.66,1.66,0,0,0,.33.57,1.54,1.54,0,0,0,.53.37,1.85,1.85,0,0,0,1.4,0,1.54,1.54,0,0,0,.53-.37,1.67,1.67,0,0,0,.33-.57,2.32,2.32,0,0,0,0-1.46,1.68,1.68,0,0,0-.33-.57,1.55,1.55,0,0,0-.53-.37A1.72,1.72,0,0,0,181.09,70.78Z" transform="translate(-1.5)"/><path class="cls-3" d="M185,70h.91v.81h0a.87.87,0,0,1,.17-.27,1.72,1.72,0,0,1,.35-.31A2.11,2.11,0,0,1,187,70a1.82,1.82,0,0,1,.63-.1,1.64,1.64,0,0,1,1.6,1,1.66,1.66,0,0,1,.7-.73,1.93,1.93,0,0,1,.92-.24,2.09,2.09,0,0,1,1,.2,1.57,1.57,0,0,1,.59.52,2,2,0,0,1,.3.74,4.39,4.39,0,0,1,.08.85v3h-1V72.3a4.16,4.16,0,0,0,0-.57,1.34,1.34,0,0,0-.16-.48.9.9,0,0,0-.33-.34,1.36,1.36,0,0,0-1.57.31,2,2,0,0,0-.3,1.13V75.2h-1V72.47a5.59,5.59,0,0,0,0-.68,1.62,1.62,0,0,0-.15-.53.84.84,0,0,0-.32-.35,1.1,1.1,0,0,0-.57-.13,1.26,1.26,0,0,0-.5.1,1.19,1.19,0,0,0-.43.31,1.53,1.53,0,0,0-.29.53,2.43,2.43,0,0,0-.11.76V75.2h-1Z" transform="translate(-1.5)"/><path class="cls-3" d="M194.95,73a1.32,1.32,0,0,0,.15.62,1.53,1.53,0,0,0,.38.48,1.76,1.76,0,0,0,.55.31,1.94,1.94,0,0,0,.65.11,1.43,1.43,0,0,0,.79-.21,2.55,2.55,0,0,0,.61-.57l.73.57a2.68,2.68,0,0,1-2.26,1.07,2.77,2.77,0,0,1-1.09-.21,2.38,2.38,0,0,1-.83-.58,2.58,2.58,0,0,1-.52-.87,3.13,3.13,0,0,1-.18-1.08,2.89,2.89,0,0,1,.2-1.08,2.69,2.69,0,0,1,.55-.87,2.51,2.51,0,0,1,.84-.58,2.65,2.65,0,0,1,1.06-.21,2.48,2.48,0,0,1,1.15.24,2.28,2.28,0,0,1,.77.63,2.52,2.52,0,0,1,.44.88,3.73,3.73,0,0,1,.13,1V73Zm3.06-.79a2.13,2.13,0,0,0-.1-.6,1.34,1.34,0,0,0-.27-.48,1.26,1.26,0,0,0-.46-.32,1.65,1.65,0,0,0-.64-.12,1.53,1.53,0,0,0-.65.14,1.59,1.59,0,0,0-.5.36,1.66,1.66,0,0,0-.32.49,1.37,1.37,0,0,0-.11.53Z" transform="translate(-1.5)"/><path class="cls-3" d="M200.21,70h1v.8h0a1.45,1.45,0,0,1,.64-.68,2.07,2.07,0,0,1,1-.26,2.19,2.19,0,0,1,.71.12,1.59,1.59,0,0,1,.59.36,1.74,1.74,0,0,1,.4.62,2.42,2.42,0,0,1,.15.9V75.2h-1V72.12a1.77,1.77,0,0,0-.1-.62,1.13,1.13,0,0,0-.26-.42,1,1,0,0,0-.37-.23,1.34,1.34,0,0,0-.44-.07,1.56,1.56,0,0,0-.56.1,1.17,1.17,0,0,0-.45.31,1.48,1.48,0,0,0-.3.54,2.52,2.52,0,0,0-.11.78V75.2h-1Z" transform="translate(-1.5)"/><path class="cls-3" d="M208.94,70.85h-1.39v2.36c0,.15,0,.29,0,.43a1.16,1.16,0,0,0,.08.38.62.62,0,0,0,.22.27.72.72,0,0,0,.43.1,2,2,0,0,0,.36,0,1,1,0,0,0,.33-.12v.9a1.24,1.24,0,0,1-.45.14l-.43,0a1.92,1.92,0,0,1-.87-.16,1.07,1.07,0,0,1-.45-.41,1.36,1.36,0,0,1-.17-.57q0-.31,0-.63V70.85h-1.12V70h1.12V68.53h1V70h1.39Z" transform="translate(-1.5)"/></g></g><g id="Ebene_2-2" data-name="Ebene 2"><g class="cls-4"><g id="Ebene_1-2-2" data-name="Ebene 1-2"><g class="cls-5"><path class="cls-3" d="M244.13,131.58H1.5V0H244.13Zm-239.63-3H241.13V3H4.5Z" transform="translate(-1.5)"/></g><path class="cls-3" d="M64.68,101.09h-.11L1.5,95.22V15.56H237.86V95.33h-67ZM4.5,92.48l60.24,5.6,106.05-5.75h64.07V18.56H4.5Z" transform="translate(-1.5)"/></g></g></g></g></g></svg>